<mxfile host="app.diagrams.net" modified="2020-10-23T03:51:52.648Z" agent="5.0 (Windows NT 10.0; Win64; x64) AppleWebKit/537.36 (KHTML, like Gecko) Chrome/86.0.4240.111 Safari/537.36" etag="1MCds-GtDLsw9aSfKmLQ" version="13.8.1" type="github">
  <diagram id="HkuzjCNXfdghulc0zHtY" name="第 1 页">
    <mxGraphModel dx="1422" dy="1196" grid="0" gridSize="10" guides="1" tooltips="1" connect="1" arrows="1" fold="1" page="0" pageScale="1" pageWidth="827" pageHeight="1169" math="0" shadow="0">
      <root>
        <mxCell id="0" />
        <mxCell id="1" parent="0" />
        <mxCell id="XfXEvl1QIxhK9ypkfOGY-1" value="集群清单" style="text;html=1;strokeColor=none;fillColor=none;align=center;verticalAlign=middle;whiteSpace=wrap;rounded=0;" vertex="1" parent="1">
          <mxGeometry x="140" y="280" width="50" height="20" as="geometry" />
        </mxCell>
        <mxCell id="XfXEvl1QIxhK9ypkfOGY-2" value="集群1" style="strokeWidth=1;shadow=0;dashed=0;align=center;html=1;shape=mxgraph.mockup.forms.rrect;rSize=0;fillColor=#eeeeee;strokeColor=#999999;gradientColor=#cccccc;align=left;spacingLeft=4;fontSize=17;fontColor=#666666;labelPosition=right;" vertex="1" parent="1">
          <mxGeometry x="230" y="265" width="15" height="15" as="geometry" />
        </mxCell>
        <mxCell id="XfXEvl1QIxhK9ypkfOGY-3" value="集群3" style="strokeWidth=1;shadow=0;dashed=0;align=center;html=1;shape=mxgraph.mockup.forms.rrect;rSize=0;strokeColor=#999999;gradientColor=#cccccc;align=left;spacingLeft=4;fontSize=17;fontColor=#666666;labelPosition=right;fillColor=none;" vertex="1" parent="1">
          <mxGeometry x="230" y="310" width="15" height="15" as="geometry" />
        </mxCell>
        <mxCell id="XfXEvl1QIxhK9ypkfOGY-5" value="集群4" style="strokeWidth=1;shadow=0;dashed=0;align=center;html=1;shape=mxgraph.mockup.forms.rrect;rSize=0;strokeColor=#999999;gradientColor=#cccccc;align=left;spacingLeft=4;fontSize=17;fontColor=#666666;labelPosition=right;fillColor=none;" vertex="1" parent="1">
          <mxGeometry x="350" y="310" width="15" height="15" as="geometry" />
        </mxCell>
        <mxCell id="XfXEvl1QIxhK9ypkfOGY-6" value="发版平台" style="text;html=1;strokeColor=none;fillColor=none;align=center;verticalAlign=middle;whiteSpace=wrap;rounded=0;" vertex="1" parent="1">
          <mxGeometry x="140" y="220" width="50" height="20" as="geometry" />
        </mxCell>
        <mxCell id="XfXEvl1QIxhK9ypkfOGY-7" value="聚石塔&lt;span style=&quot;color: rgba(0 , 0 , 0 , 0) ; font-family: monospace ; font-size: 0px&quot;&gt;%3CmxGraphModel%3E%3Croot%3E%3CmxCell%20id%3D%220%22%2F%3E%3CmxCell%20id%3D%221%22%20parent%3D%220%22%2F%3E%3CmxCell%20id%3D%222%22%20value%3D%22%E9%9B%86%E7%BE%A4%E6%B8%85%E5%8D%95%22%20style%3D%22text%3Bhtml%3D1%3BstrokeColor%3Dnone%3BfillColor%3Dnone%3Balign%3Dcenter%3BverticalAlign%3Dmiddle%3BwhiteSpace%3Dwrap%3Brounded%3D0%3B%22%20vertex%3D%221%22%20parent%3D%221%22%3E%3CmxGeometry%20x%3D%22120%22%20y%3D%22170%22%20width%3D%2250%22%20height%3D%2220%22%20as%3D%22geometry%22%2F%3E%3C%2FmxCell%3E%3C%2Froot%3E%3C%2FmxGraphModel%3E&lt;/span&gt;" style="shape=ellipse;fillColor=#eeeeee;strokeColor=#999999;gradientColor=#cccccc;html=1;align=left;spacingLeft=4;fontSize=17;fontColor=#666666;labelPosition=right;shadow=0;" vertex="1" parent="1">
          <mxGeometry x="230" y="225" width="15" height="15" as="geometry" />
        </mxCell>
        <mxCell id="XfXEvl1QIxhK9ypkfOGY-9" value="京东" style="shape=ellipse;fillColor=#eeeeee;strokeColor=#999999;gradientColor=#cccccc;html=1;align=left;spacingLeft=4;fontSize=17;fontColor=#666666;labelPosition=right;shadow=0;" vertex="1" parent="1">
          <mxGeometry x="350" y="225" width="15" height="15" as="geometry" />
        </mxCell>
        <mxCell id="XfXEvl1QIxhK9ypkfOGY-20" value="应用(项目)" style="text;html=1;strokeColor=none;fillColor=none;align=center;verticalAlign=middle;whiteSpace=wrap;rounded=0;" vertex="1" parent="1">
          <mxGeometry x="140" y="190" width="60" height="20" as="geometry" />
        </mxCell>
        <mxCell id="XfXEvl1QIxhK9ypkfOGY-21" value="下拉选择" style="strokeWidth=1;shadow=0;dashed=0;align=center;html=1;shape=mxgraph.mockup.forms.comboBox;strokeColor=#999999;fillColor=#ddeeff;align=left;fillColor2=#aaddff;mainText=;fontColor=#666666;fontSize=17;spacingLeft=3;" vertex="1" parent="1">
          <mxGeometry x="230" y="180" width="190" height="30" as="geometry" />
        </mxCell>
        <mxCell id="XfXEvl1QIxhK9ypkfOGY-22" value="Key" style="text;html=1;fillColor=none;align=center;verticalAlign=middle;whiteSpace=wrap;rounded=0;strokeColor=#000000;fontStyle=1" vertex="1" parent="1">
          <mxGeometry x="180" y="380" width="70" height="20" as="geometry" />
        </mxCell>
        <mxCell id="XfXEvl1QIxhK9ypkfOGY-23" style="edgeStyle=orthogonalEdgeStyle;rounded=0;orthogonalLoop=1;jettySize=auto;html=1;exitX=0.5;exitY=1;exitDx=0;exitDy=0;" edge="1" parent="1" source="XfXEvl1QIxhK9ypkfOGY-22" target="XfXEvl1QIxhK9ypkfOGY-22">
          <mxGeometry relative="1" as="geometry" />
        </mxCell>
        <mxCell id="XfXEvl1QIxhK9ypkfOGY-24" value="线上Value值" style="text;html=1;fillColor=none;align=center;verticalAlign=middle;whiteSpace=wrap;rounded=0;strokeColor=#000000;fontStyle=1" vertex="1" parent="1">
          <mxGeometry x="250" y="380" width="80" height="20" as="geometry" />
        </mxCell>
        <mxCell id="XfXEvl1QIxhK9ypkfOGY-25" value="Value新值" style="text;html=1;fillColor=none;align=center;verticalAlign=middle;whiteSpace=wrap;rounded=0;strokeColor=#000000;fontStyle=1" vertex="1" parent="1">
          <mxGeometry x="330" y="380" width="70" height="20" as="geometry" />
        </mxCell>
        <mxCell id="XfXEvl1QIxhK9ypkfOGY-26" value="集群" style="text;html=1;fillColor=none;align=center;verticalAlign=middle;whiteSpace=wrap;rounded=0;strokeColor=#000000;fontStyle=1" vertex="1" parent="1">
          <mxGeometry x="400" y="380" width="70" height="20" as="geometry" />
        </mxCell>
        <mxCell id="XfXEvl1QIxhK9ypkfOGY-27" value="key1" style="text;html=1;fillColor=none;align=center;verticalAlign=middle;whiteSpace=wrap;rounded=0;strokeColor=#000000;fontStyle=1" vertex="1" parent="1">
          <mxGeometry x="180" y="400" width="70" height="20" as="geometry" />
        </mxCell>
        <mxCell id="XfXEvl1QIxhK9ypkfOGY-28" value="1" style="text;html=1;fillColor=none;align=center;verticalAlign=middle;whiteSpace=wrap;rounded=0;strokeColor=#000000;fontStyle=1" vertex="1" parent="1">
          <mxGeometry x="250" y="400" width="80" height="20" as="geometry" />
        </mxCell>
        <mxCell id="XfXEvl1QIxhK9ypkfOGY-29" value="" style="text;html=1;fillColor=none;align=center;verticalAlign=middle;whiteSpace=wrap;rounded=0;strokeColor=#000000;fontStyle=1;fontColor=#FF0000;" vertex="1" parent="1">
          <mxGeometry x="330" y="400" width="70" height="20" as="geometry" />
        </mxCell>
        <mxCell id="XfXEvl1QIxhK9ypkfOGY-30" value="集群1" style="text;html=1;fillColor=none;align=center;verticalAlign=middle;whiteSpace=wrap;rounded=0;strokeColor=#000000;fontStyle=1" vertex="1" parent="1">
          <mxGeometry x="400" y="400" width="70" height="20" as="geometry" />
        </mxCell>
        <mxCell id="XfXEvl1QIxhK9ypkfOGY-31" style="edgeStyle=orthogonalEdgeStyle;rounded=0;orthogonalLoop=1;jettySize=auto;html=1;exitX=0.5;exitY=1;exitDx=0;exitDy=0;" edge="1" parent="1">
          <mxGeometry relative="1" as="geometry">
            <mxPoint x="215" y="420" as="sourcePoint" />
            <mxPoint x="215" y="420" as="targetPoint" />
          </mxGeometry>
        </mxCell>
        <mxCell id="XfXEvl1QIxhK9ypkfOGY-32" value="key2" style="text;html=1;fillColor=none;align=center;verticalAlign=middle;whiteSpace=wrap;rounded=0;strokeColor=#000000;fontStyle=1" vertex="1" parent="1">
          <mxGeometry x="180" y="420" width="70" height="20" as="geometry" />
        </mxCell>
        <mxCell id="XfXEvl1QIxhK9ypkfOGY-33" value="1" style="text;html=1;fillColor=none;align=center;verticalAlign=middle;whiteSpace=wrap;rounded=0;strokeColor=#000000;fontStyle=1" vertex="1" parent="1">
          <mxGeometry x="250" y="420" width="80" height="20" as="geometry" />
        </mxCell>
        <mxCell id="XfXEvl1QIxhK9ypkfOGY-34" value="&lt;font color=&quot;#ff0000&quot;&gt;2&lt;/font&gt;" style="text;html=1;fillColor=none;align=center;verticalAlign=middle;whiteSpace=wrap;rounded=0;strokeColor=#000000;fontStyle=1" vertex="1" parent="1">
          <mxGeometry x="330" y="420" width="70" height="20" as="geometry" />
        </mxCell>
        <mxCell id="XfXEvl1QIxhK9ypkfOGY-35" value="集群1" style="text;html=1;fillColor=none;align=center;verticalAlign=middle;whiteSpace=wrap;rounded=0;strokeColor=#000000;fontStyle=1" vertex="1" parent="1">
          <mxGeometry x="400" y="420" width="70" height="20" as="geometry" />
        </mxCell>
        <mxCell id="XfXEvl1QIxhK9ypkfOGY-36" style="edgeStyle=orthogonalEdgeStyle;rounded=0;orthogonalLoop=1;jettySize=auto;html=1;exitX=0.5;exitY=1;exitDx=0;exitDy=0;" edge="1" parent="1" source="XfXEvl1QIxhK9ypkfOGY-29" target="XfXEvl1QIxhK9ypkfOGY-29">
          <mxGeometry relative="1" as="geometry" />
        </mxCell>
        <mxCell id="XfXEvl1QIxhK9ypkfOGY-37" style="edgeStyle=orthogonalEdgeStyle;rounded=0;orthogonalLoop=1;jettySize=auto;html=1;exitX=0.5;exitY=1;exitDx=0;exitDy=0;" edge="1" parent="1">
          <mxGeometry relative="1" as="geometry">
            <mxPoint x="215" y="440" as="sourcePoint" />
            <mxPoint x="215" y="440" as="targetPoint" />
          </mxGeometry>
        </mxCell>
        <mxCell id="XfXEvl1QIxhK9ypkfOGY-38" value="key2" style="text;html=1;fillColor=none;align=center;verticalAlign=middle;whiteSpace=wrap;rounded=0;strokeColor=#000000;fontStyle=1" vertex="1" parent="1">
          <mxGeometry x="180" y="440" width="70" height="20" as="geometry" />
        </mxCell>
        <mxCell id="XfXEvl1QIxhK9ypkfOGY-39" value="1" style="text;html=1;fillColor=none;align=center;verticalAlign=middle;whiteSpace=wrap;rounded=0;strokeColor=#000000;fontStyle=1" vertex="1" parent="1">
          <mxGeometry x="250" y="440" width="80" height="20" as="geometry" />
        </mxCell>
        <mxCell id="XfXEvl1QIxhK9ypkfOGY-40" value="&lt;font color=&quot;#ff0000&quot;&gt;2&lt;/font&gt;" style="text;html=1;fillColor=none;align=center;verticalAlign=middle;whiteSpace=wrap;rounded=0;strokeColor=#000000;fontStyle=1" vertex="1" parent="1">
          <mxGeometry x="330" y="440" width="70" height="20" as="geometry" />
        </mxCell>
        <mxCell id="XfXEvl1QIxhK9ypkfOGY-41" value="集群2" style="text;html=1;fillColor=none;align=center;verticalAlign=middle;whiteSpace=wrap;rounded=0;strokeColor=#000000;fontStyle=1" vertex="1" parent="1">
          <mxGeometry x="400" y="440" width="70" height="20" as="geometry" />
        </mxCell>
        <mxCell id="XfXEvl1QIxhK9ypkfOGY-42" style="edgeStyle=orthogonalEdgeStyle;rounded=0;orthogonalLoop=1;jettySize=auto;html=1;exitX=0.5;exitY=1;exitDx=0;exitDy=0;" edge="1" parent="1">
          <mxGeometry relative="1" as="geometry">
            <mxPoint x="365" y="440" as="sourcePoint" />
            <mxPoint x="365" y="440" as="targetPoint" />
          </mxGeometry>
        </mxCell>
        <mxCell id="XfXEvl1QIxhK9ypkfOGY-43" style="edgeStyle=orthogonalEdgeStyle;rounded=0;orthogonalLoop=1;jettySize=auto;html=1;exitX=0.5;exitY=1;exitDx=0;exitDy=0;" edge="1" parent="1">
          <mxGeometry relative="1" as="geometry">
            <mxPoint x="215" y="460" as="sourcePoint" />
            <mxPoint x="215" y="460" as="targetPoint" />
          </mxGeometry>
        </mxCell>
        <mxCell id="XfXEvl1QIxhK9ypkfOGY-44" value="key3" style="text;html=1;fillColor=none;align=center;verticalAlign=middle;whiteSpace=wrap;rounded=0;strokeColor=#000000;fontStyle=1" vertex="1" parent="1">
          <mxGeometry x="180" y="460" width="70" height="20" as="geometry" />
        </mxCell>
        <mxCell id="XfXEvl1QIxhK9ypkfOGY-45" value="1" style="text;html=1;fillColor=none;align=center;verticalAlign=middle;whiteSpace=wrap;rounded=0;strokeColor=#000000;fontStyle=1" vertex="1" parent="1">
          <mxGeometry x="250" y="460" width="80" height="20" as="geometry" />
        </mxCell>
        <mxCell id="XfXEvl1QIxhK9ypkfOGY-46" value="" style="text;html=1;fillColor=none;align=center;verticalAlign=middle;whiteSpace=wrap;rounded=0;strokeColor=#000000;fontStyle=1" vertex="1" parent="1">
          <mxGeometry x="330" y="460" width="70" height="20" as="geometry" />
        </mxCell>
        <mxCell id="XfXEvl1QIxhK9ypkfOGY-47" value="集群1" style="text;html=1;fillColor=none;align=center;verticalAlign=middle;whiteSpace=wrap;rounded=0;strokeColor=#000000;fontStyle=1" vertex="1" parent="1">
          <mxGeometry x="400" y="460" width="70" height="20" as="geometry" />
        </mxCell>
        <mxCell id="XfXEvl1QIxhK9ypkfOGY-48" style="edgeStyle=orthogonalEdgeStyle;rounded=0;orthogonalLoop=1;jettySize=auto;html=1;exitX=0.5;exitY=1;exitDx=0;exitDy=0;" edge="1" parent="1">
          <mxGeometry relative="1" as="geometry">
            <mxPoint x="365" y="460" as="sourcePoint" />
            <mxPoint x="365" y="460" as="targetPoint" />
          </mxGeometry>
        </mxCell>
        <mxCell id="XfXEvl1QIxhK9ypkfOGY-51" value="选择" style="text;html=1;fillColor=none;align=center;verticalAlign=middle;whiteSpace=wrap;rounded=0;strokeColor=#000000;fontStyle=1" vertex="1" parent="1">
          <mxGeometry x="110" y="380" width="70" height="20" as="geometry" />
        </mxCell>
        <mxCell id="XfXEvl1QIxhK9ypkfOGY-52" value="" style="text;html=1;fillColor=none;align=center;verticalAlign=middle;whiteSpace=wrap;rounded=0;strokeColor=#000000;fontStyle=1" vertex="1" parent="1">
          <mxGeometry x="110" y="400" width="70" height="20" as="geometry" />
        </mxCell>
        <mxCell id="XfXEvl1QIxhK9ypkfOGY-53" value="" style="text;html=1;fillColor=none;align=center;verticalAlign=middle;whiteSpace=wrap;rounded=0;strokeColor=#000000;fontStyle=1" vertex="1" parent="1">
          <mxGeometry x="110" y="420" width="70" height="20" as="geometry" />
        </mxCell>
        <mxCell id="XfXEvl1QIxhK9ypkfOGY-54" value="" style="text;html=1;fillColor=none;align=center;verticalAlign=middle;whiteSpace=wrap;rounded=0;strokeColor=#000000;fontStyle=1" vertex="1" parent="1">
          <mxGeometry x="110" y="440" width="70" height="20" as="geometry" />
        </mxCell>
        <mxCell id="XfXEvl1QIxhK9ypkfOGY-55" value="" style="text;html=1;fillColor=none;align=center;verticalAlign=middle;whiteSpace=wrap;rounded=0;strokeColor=#000000;fontStyle=1" vertex="1" parent="1">
          <mxGeometry x="110" y="460" width="70" height="20" as="geometry" />
        </mxCell>
        <mxCell id="XfXEvl1QIxhK9ypkfOGY-56" value="" style="rounded=0;whiteSpace=wrap;html=1;shadow=0;strokeColor=#000000;gradientColor=#BFBFBF;fontColor=#FF0000;fillColor=none;" vertex="1" parent="1">
          <mxGeometry x="140" y="405" width="10" height="10" as="geometry" />
        </mxCell>
        <mxCell id="XfXEvl1QIxhK9ypkfOGY-57" value="" style="rounded=0;whiteSpace=wrap;html=1;shadow=0;strokeColor=#000000;gradientColor=#BFBFBF;fontColor=#FF0000;fillColor=none;" vertex="1" parent="1">
          <mxGeometry x="140" y="425" width="10" height="10" as="geometry" />
        </mxCell>
        <mxCell id="XfXEvl1QIxhK9ypkfOGY-58" value="" style="rounded=0;whiteSpace=wrap;html=1;shadow=0;strokeColor=#000000;gradientColor=#BFBFBF;fontColor=#FF0000;fillColor=none;" vertex="1" parent="1">
          <mxGeometry x="140" y="445" width="10" height="10" as="geometry" />
        </mxCell>
        <mxCell id="XfXEvl1QIxhK9ypkfOGY-59" value="" style="rounded=0;whiteSpace=wrap;html=1;shadow=0;strokeColor=#000000;gradientColor=#BFBFBF;fontColor=#FF0000;fillColor=none;" vertex="1" parent="1">
          <mxGeometry x="140" y="465" width="10" height="10" as="geometry" />
        </mxCell>
        <mxCell id="XfXEvl1QIxhK9ypkfOGY-60" value="集群2" style="strokeWidth=1;shadow=0;dashed=0;align=center;html=1;shape=mxgraph.mockup.forms.rrect;rSize=0;fillColor=#eeeeee;strokeColor=#999999;gradientColor=#cccccc;align=left;spacingLeft=4;fontSize=17;fontColor=#666666;labelPosition=right;" vertex="1" parent="1">
          <mxGeometry x="350" y="265" width="15" height="15" as="geometry" />
        </mxCell>
        <mxCell id="XfXEvl1QIxhK9ypkfOGY-61" value="新增" style="rounded=1;whiteSpace=wrap;html=1;shadow=0;strokeColor=#000000;fillColor=none;gradientColor=#BFBFBF;fontColor=#00000D;" vertex="1" parent="1">
          <mxGeometry x="337" y="350" width="56" height="20" as="geometry" />
        </mxCell>
        <mxCell id="XfXEvl1QIxhK9ypkfOGY-62" value="批量修改" style="rounded=1;whiteSpace=wrap;html=1;shadow=0;strokeColor=#000000;fillColor=none;gradientColor=#BFBFBF;fontColor=#00000D;" vertex="1" parent="1">
          <mxGeometry x="407" y="350" width="56" height="20" as="geometry" />
        </mxCell>
        <mxCell id="XfXEvl1QIxhK9ypkfOGY-63" value="过滤Key" style="rounded=1;whiteSpace=wrap;html=1;shadow=0;strokeColor=#000000;fillColor=none;gradientColor=#BFBFBF;fontColor=#00000D;" vertex="1" parent="1">
          <mxGeometry x="262" y="350" width="56" height="20" as="geometry" />
        </mxCell>
        <mxCell id="XfXEvl1QIxhK9ypkfOGY-65" value="期望执行时间" style="text;html=1;strokeColor=none;fillColor=none;align=center;verticalAlign=middle;whiteSpace=wrap;rounded=0;" vertex="1" parent="1">
          <mxGeometry x="110" y="140" width="80" height="20" as="geometry" />
        </mxCell>
        <mxCell id="XfXEvl1QIxhK9ypkfOGY-66" value="2020-10-22 22:00:00" style="strokeWidth=1;shadow=0;dashed=0;align=center;html=1;shape=mxgraph.mockup.forms.comboBox;strokeColor=#999999;fillColor=#ddeeff;align=left;fillColor2=#aaddff;mainText=;fontColor=#666666;fontSize=17;spacingLeft=3;" vertex="1" parent="1">
          <mxGeometry x="230" y="140" width="200" height="30" as="geometry" />
        </mxCell>
        <mxCell id="XfXEvl1QIxhK9ypkfOGY-67" value="工单描述" style="text;html=1;strokeColor=none;fillColor=none;align=center;verticalAlign=middle;whiteSpace=wrap;rounded=0;" vertex="1" parent="1">
          <mxGeometry x="110" y="90" width="80" height="20" as="geometry" />
        </mxCell>
        <mxCell id="XfXEvl1QIxhK9ypkfOGY-68" value="" style="rounded=0;whiteSpace=wrap;html=1;shadow=0;strokeColor=#000000;fillColor=none;gradientColor=#BFBFBF;fontColor=#00000D;" vertex="1" parent="1">
          <mxGeometry x="218.5" y="80" width="213" height="40" as="geometry" />
        </mxCell>
        <mxCell id="XfXEvl1QIxhK9ypkfOGY-69" value="发版原因" style="text;html=1;strokeColor=none;fillColor=none;align=center;verticalAlign=middle;whiteSpace=wrap;rounded=0;" vertex="1" parent="1">
          <mxGeometry x="105" y="-10" width="80" height="20" as="geometry" />
        </mxCell>
        <mxCell id="XfXEvl1QIxhK9ypkfOGY-70" value="受影响业务逻辑" style="text;html=1;strokeColor=none;fillColor=none;align=center;verticalAlign=middle;whiteSpace=wrap;rounded=0;" vertex="1" parent="1">
          <mxGeometry x="110" y="20" width="90" height="20" as="geometry" />
        </mxCell>
        <mxCell id="XfXEvl1QIxhK9ypkfOGY-71" value="受影响客户范围" style="text;html=1;strokeColor=none;fillColor=none;align=center;verticalAlign=middle;whiteSpace=wrap;rounded=0;" vertex="1" parent="1">
          <mxGeometry x="110" y="50" width="90" height="20" as="geometry" />
        </mxCell>
        <mxCell id="XfXEvl1QIxhK9ypkfOGY-72" value="" style="rounded=0;whiteSpace=wrap;html=1;shadow=0;strokeColor=#000000;fillColor=none;gradientColor=#BFBFBF;fontColor=#00000D;" vertex="1" parent="1">
          <mxGeometry x="218.5" y="-10" width="201.5" height="20" as="geometry" />
        </mxCell>
        <mxCell id="XfXEvl1QIxhK9ypkfOGY-73" value="" style="rounded=0;whiteSpace=wrap;html=1;shadow=0;strokeColor=#000000;fillColor=none;gradientColor=#BFBFBF;fontColor=#00000D;" vertex="1" parent="1">
          <mxGeometry x="218.5" y="20" width="201.5" height="20" as="geometry" />
        </mxCell>
        <mxCell id="XfXEvl1QIxhK9ypkfOGY-74" value="" style="rounded=0;whiteSpace=wrap;html=1;shadow=0;strokeColor=#000000;fillColor=none;gradientColor=#BFBFBF;fontColor=#00000D;" vertex="1" parent="1">
          <mxGeometry x="218.5" y="50" width="201.5" height="20" as="geometry" />
        </mxCell>
      </root>
    </mxGraphModel>
  </diagram>
</mxfile>
